<svg xmlns="http://www.w3.org/2000/svg" xmlns:xlink="http://www.w3.org/1999/xlink" width="100" height="105.172" viewBox="0 0 100 105.172">
  <defs>
    <linearGradient id="linear-gradient" x1="1.923" x2="-0.76" y2="-0.97" gradientUnits="objectBoundingBox">
      <stop offset="0" stop-color="#00eba2"/>
      <stop offset="0.473" stop-color="#1588a7"/>
      <stop offset="1" stop-color="#25449b"/>
    </linearGradient>
  </defs>
  <g id="menu_verify" transform="translate(-11.999)">
    <g id="Group_616" data-name="Group 616" transform="translate(68.896 22.414)">
      <path id="Path_979" data-name="Path 979" d="M411.192,424H404v6.9a6.9,6.9,0,0,0,7.574,6.864,7.1,7.1,0,0,0,6.219-7.16A6.6,6.6,0,0,0,411.192,424Z" transform="translate(-376.413 -355.034)" fill="#73edc7"/>
      <path id="Path_980" data-name="Path 980" d="M289.792,166.069V104H276v62.069a6.9,6.9,0,1,0,13.793,0Z" transform="translate(-275.999 -104)" fill="#73edc7"/>
    </g>
    <g id="Group_617" data-name="Group 617" transform="translate(11.999)">
      <path id="Path_981" data-name="Path 981" d="M45.723,35.448h20.69a1.724,1.724,0,0,0,0-3.448H45.723a1.724,1.724,0,1,0,0,3.448Z" transform="translate(-37.102 -25.103)" fill="url(#linear-gradient)"/>
      <path id="Path_982" data-name="Path 982" d="M45.723,99.448H80.206a1.724,1.724,0,0,0,0-3.448H45.723a1.724,1.724,0,1,0,0,3.448Z" transform="translate(-37.102 -75.31)" fill="url(#linear-gradient)"/>
      <path id="Path_983" data-name="Path 983" d="M45.723,131.448H80.206a1.724,1.724,0,0,0,0-3.448H45.723a1.724,1.724,0,1,0,0,3.448Z" transform="translate(-37.102 -100.414)" fill="url(#linear-gradient)"/>
      <path id="Path_984" data-name="Path 984" d="M76,193.724a1.723,1.723,0,0,0,1.724,1.724h34.483a1.724,1.724,0,0,0,0-3.448H77.723A1.723,1.723,0,0,0,76,193.724Z" transform="translate(-62.206 -150.621)" fill="url(#linear-gradient)"/>
      <path id="Path_985" data-name="Path 985" d="M45.723,259.448H87.1a1.724,1.724,0,0,0,0-3.448H45.723a1.724,1.724,0,0,0,0,3.448Z" transform="translate(-37.102 -200.828)" fill="url(#linear-gradient)"/>
      <path id="Path_986" data-name="Path 986" d="M45.723,291.448H87.1a1.724,1.724,0,0,0,0-3.448H45.723a1.724,1.724,0,0,0,0,3.448Z" transform="translate(-37.102 -225.931)" fill="url(#linear-gradient)"/>
      <path id="Path_987" data-name="Path 987" d="M88.827,321.724A1.723,1.723,0,0,0,87.1,320H45.723a1.724,1.724,0,0,0,0,3.448H87.1A1.723,1.723,0,0,0,88.827,321.724Z" transform="translate(-37.102 -251.034)" fill="url(#linear-gradient)"/>
      <path id="Path_988" data-name="Path 988" d="M215.1,416H173.723a1.724,1.724,0,1,0,0,3.448H215.1a1.724,1.724,0,1,0,0-3.448Z" transform="translate(-137.516 -326.345)" fill="url(#linear-gradient)"/>
      <path id="Path_989" data-name="Path 989" d="M103.675,82.759H98.206V22.71a8.848,8.848,0,0,0-7.781-8.876c-.207-.021-.41.01-.616.005a1.4,1.4,0,0,0-.224-.047H70.62V8.621A8.63,8.63,0,0,0,62,0H20.62A8.63,8.63,0,0,0,12,8.621V77.586a8.63,8.63,0,0,0,8.621,8.621H39.585v5.172A8.63,8.63,0,0,0,48.206,100H103.4c.274,0,.548-.014.824-.04A8.849,8.849,0,0,0,112,91.083,8.334,8.334,0,0,0,103.675,82.759ZM82.539,17.241a9.267,9.267,0,0,0-1.326,3.2c-.033.134-.059.269-.083.405a9.318,9.318,0,0,0-.166,1.571V77.29a5.562,5.562,0,0,1-2.809,4.871l-.04.021a4.873,4.873,0,0,1-.655.276c-.134.047-.269.091-.409.128s-.305.067-.46.093c-.178.028-.357.045-.54.055s-.386.005-.578-.005c-.162-.01-.321-.024-.478-.048a5.348,5.348,0,0,1-.548-.119,5.053,5.053,0,0,1-.483-.15c-.159-.06-.312-.134-.466-.21a4.974,4.974,0,0,1-.462-.252,4.663,4.663,0,0,1-.426-.314,3.514,3.514,0,0,1-.766-.745c-.1-.117-.205-.229-.293-.355a4.928,4.928,0,0,1-.331-.579c-.055-.107-.122-.205-.171-.314a5.27,5.27,0,0,1-.262-.809c-.016-.064-.045-.121-.057-.184a5.073,5.073,0,0,1-.114-1.062V17.241ZM15.447,77.586V8.621A5.179,5.179,0,0,1,20.62,3.448H62a5.179,5.179,0,0,1,5.172,5.172V77.586a8.705,8.705,0,0,0,.186,1.772c.022.11.072.212.1.322a8.717,8.717,0,0,0,.431,1.333c.081.186.2.353.29.534a8.529,8.529,0,0,0,.547.953c.062.088.126.172.191.259H20.62A5.181,5.181,0,0,1,15.447,77.586ZM43.033,91.379V86.207H75.792c.009,0,.017,0,.026,0,.271,0,.543-.01.814-.038.159-.016.305-.067.46-.091.272-.041.54-.091.8-.159.233-.06.457-.133.681-.212a8.518,8.518,0,0,0,1.01-.417c.074-.038.145-.078.217-.117a8.593,8.593,0,0,0,4.609-7.583V22.41A5.174,5.174,0,0,1,90.1,17.266a5.376,5.376,0,0,1,4.66,5.445V91.379A8.615,8.615,0,0,0,96.5,96.552h-48.3A5.179,5.179,0,0,1,43.033,91.379Zm60.859,5.148a5.177,5.177,0,0,1-5.686-5.148V86.207h5.469a4.882,4.882,0,0,1,4.876,4.876A5.376,5.376,0,0,1,103.892,96.528Z" transform="translate(-11.999)" fill="url(#linear-gradient)"/>
    </g>
  </g>
</svg>
