<svg xmlns="http://www.w3.org/2000/svg" xmlns:xlink="http://www.w3.org/1999/xlink" width="304.784" height="244.751" viewBox="0 0 304.784 244.751">
  <defs>
    <linearGradient id="linear-gradient" x1="-0.242" y1="1.338" x2="0.965" y2="0.202" gradientUnits="objectBoundingBox">
      <stop offset="0" stop-color="#f8f9f9"/>
      <stop offset="1" stop-color="#beffeb"/>
    </linearGradient>
    <linearGradient id="linear-gradient-2" x1="1.235" y1="0.187" x2="-1.239" y2="1.317" gradientUnits="objectBoundingBox">
      <stop offset="0" stop-color="#00eba2"/>
      <stop offset="0.473" stop-color="#006782"/>
      <stop offset="1" stop-color="#001d6d"/>
    </linearGradient>
    <linearGradient id="linear-gradient-3" x1="1.052" y1="0.299" x2="0.164" y2="0.788" gradientUnits="objectBoundingBox">
      <stop offset="0" stop-color="#00eba2"/>
      <stop offset="0.473" stop-color="#1588a7"/>
      <stop offset="1" stop-color="#25449b"/>
    </linearGradient>
    <linearGradient id="linear-gradient-4" x1="1.808" y1="-0.819" x2="-1.627" y2="3.414" xlink:href="#linear-gradient-2"/>
  </defs>
  <g id="wallet_3_" data-name="wallet (3)" transform="translate(17.64 -23.308)">
    <path id="Path_1940" data-name="Path 1940" d="M280.661,88.447c-38.941-29.938-76.712-5.54-118.842-14.166-42.435-8.689-59.341-37.622-107.672-24.267-42.814,11.83-68.792,59.261-45.256,98.97C15.6,160.3,27.024,168.837,31.693,181.5c7.532,20.425-3.933,36.106-1.7,56.178,9.294,83.4,136.661,51.1,183.527,25.148,73.5-40.693,123.222-131.258,67.137-174.376Z" transform="translate(-17.64 -23.24)" fill="url(#linear-gradient)"/>
    <path id="Path_1941" data-name="Path 1941" d="M227.333,158.318q-.671-.726-1.39-1.405a26.168,26.168,0,0,0-17.928-7.069H163.568V66.221a4.58,4.58,0,0,0-4.579-4.585H82.322a4.585,4.585,0,0,0-4.585,4.585v83.625H75.9A11.192,11.192,0,0,0,64.71,161.038V273.085A11.192,11.192,0,0,0,75.9,284.277l132.113,0A26.272,26.272,0,0,0,234.287,258V176.125a26.184,26.184,0,0,0-6.953-17.807Z" transform="translate(-30.648 -16.22)" fill="#00df9a" opacity="0.2"/>
    <path id="Path_1942" data-name="Path 1942" d="M196.29,45.225V161.811H110.46V45.225a4.585,4.585,0,0,1,4.585-4.585h76.666a4.581,4.581,0,0,1,4.579,4.585Z" transform="translate(-52.317 -6.276)" fill="url(#linear-gradient-2)"/>
    <path id="Path_1943" data-name="Path 1943" d="M229.108,85.83v97.384H179.75v-92.8a4.58,4.58,0,0,1,4.585-4.579Z" transform="translate(-85.134 -27.679)" fill="#01eca5" opacity="0.48"/>
    <path id="Path_1944" data-name="Path 1944" d="M281.58,78.905v98.858H195.75V78.905a4.58,4.58,0,0,1,4.585-4.579H277A4.579,4.579,0,0,1,281.58,78.905Z" transform="translate(-92.712 -22.231)" fill="#93f5d3"/>
    <path id="Path_1945" data-name="Path 1945" d="M277.272,234.364v81.476A26.208,26.208,0,0,1,251,341.987H143.326a11.167,11.167,0,0,1-11.2-11.141V219.352a11.167,11.167,0,0,1,11.2-11.141H251a26.238,26.238,0,0,1,17.928,7.035q.719.676,1.39,1.4a25.985,25.985,0,0,1,6.953,17.72Z" transform="translate(-62.58 -85.642)" fill="url(#linear-gradient-3)"/>
    <path id="Path_1947" data-name="Path 1947" d="M85.71,331.455A11.192,11.192,0,0,0,96.9,342.648H204.576a26.279,26.279,0,0,0,26.279-26.279V234.5a26.279,26.279,0,0,0-26.279-26.279H96.9A11.192,11.192,0,0,0,85.71,219.408Z" transform="translate(-40.595 -85.644)" fill="#d4ffec"/>
    <path id="Path_1949" data-name="Path 1949" d="M356.242,338.41H295.8a5.6,5.6,0,0,1-5.6-5.6V294.147a5.6,5.6,0,0,1,5.6-5.6h60.438a5.6,5.6,0,0,1,5.6,5.6v38.666A5.6,5.6,0,0,1,356.242,338.41Z" transform="translate(-137.45 -123.693)" fill="#d4ffec"/>
    <path id="Path_1950" data-name="Path 1950" d="M413.834,294.146v38.667a5.6,5.6,0,0,1-5.6,5.6H399.99a5.6,5.6,0,0,0,5.6-5.6V294.146a5.6,5.6,0,0,0-5.6-5.6h8.248A5.6,5.6,0,0,1,413.834,294.146Z" transform="translate(-189.446 -123.693)" fill="#6ff0c9"/>
    <path id="Path_1951" data-name="Path 1951" d="M335.586,338.41H295.8a5.6,5.6,0,0,1-5.6-5.6V294.147a5.6,5.6,0,0,1,5.6-5.6h39.783a5.6,5.6,0,0,1,5.6,5.6v38.666A5.6,5.6,0,0,1,335.586,338.41Z" transform="translate(-137.45 -123.693)" fill="#93f5d3"/>
    <path id="Path_1952" data-name="Path 1952" d="M374.594,294.146v38.667a5.6,5.6,0,0,1-5.6,5.6H360.75a5.6,5.6,0,0,0,5.6-5.6V294.146a5.6,5.6,0,0,0-5.6-5.6H369A5.6,5.6,0,0,1,374.594,294.146Z" transform="translate(-170.861 -123.693)" fill="#3de9b4"/>
    <path id="Path_1953" data-name="Path 1953" d="M168.2,279.739h-46.61a3.442,3.442,0,0,1-3.442-3.443V265.452a3.442,3.442,0,0,1,3.442-3.443H168.2a3.442,3.442,0,0,1,3.442,3.443V276.3A3.442,3.442,0,0,1,168.2,279.739Z" transform="translate(-55.958 -111.123)" fill="#93f5d3"/>
    <path id="Path_1954" data-name="Path 1954" d="M145.479,320.309H121.589a3.442,3.442,0,0,1-3.442-3.442v-2.582a3.442,3.442,0,0,1,3.442-3.442h23.889a3.442,3.442,0,0,1,3.442,3.442v2.582A3.442,3.442,0,0,1,145.479,320.309Z" transform="translate(-55.958 -134.251)" fill="#25e4a9"/>
    <path id="Path_1955" data-name="Path 1955" d="M149.7,242.441H121.934a3.787,3.787,0,1,1,0-7.573H149.7a3.787,3.787,0,1,1,0,7.573Z" transform="translate(-55.958 -98.268)" fill="#93f5d3"/>
    <path id="Path_1956" data-name="Path 1956" d="M321.824,311.142h-8.818a3,3,0,0,1,0-5.994h8.818a3,3,0,0,1,0,5.994Z" transform="translate(-146.828 -131.554)" fill="#00df9a"/>
    <g id="Group_642" data-name="Group 642" transform="translate(149.67 69.014)">
      <path id="Path_1957" data-name="Path 1957" d="M313.292,121.031a2.632,2.632,0,0,1-1.861-4.493l9.3-9.3a2.632,2.632,0,0,1,3.722,3.722l-9.3,9.3A2.623,2.623,0,0,1,313.292,121.031Z" transform="translate(-296.806 -106.468)" fill="#cbffed"/>
      <path id="Path_1958" data-name="Path 1958" d="M286.974,121.031a2.632,2.632,0,0,1-1.861-4.493l9.3-9.3a2.632,2.632,0,1,1,3.722,3.722l-9.3,9.3A2.623,2.623,0,0,1,286.974,121.031Z" transform="translate(-284.341 -106.468)" fill="#cbffed"/>
      <path id="Path_1959" data-name="Path 1959" d="M313.292,156.47a2.632,2.632,0,0,1-1.861-4.493l9.3-9.3a2.632,2.632,0,0,1,3.722,3.722l-9.3,9.3a2.625,2.625,0,0,1-1.861.771Z" transform="translate(-296.806 -123.253)" fill="#cbffed"/>
      <path id="Path_1960" data-name="Path 1960" d="M286.974,156.47a2.632,2.632,0,0,1-1.861-4.493l9.3-9.3a2.632,2.632,0,1,1,3.722,3.722l-9.3,9.3a2.625,2.625,0,0,1-1.861.771Z" transform="translate(-284.341 -123.253)" fill="#cbffed"/>
    </g>
    <path id="Path_1961" data-name="Path 1961" d="M144.752,71.9H144.1V66.99h3.145a2.632,2.632,0,0,0,0-5.264H144.1V60.569a2.632,2.632,0,1,0-5.264,0v1.158h-.654a7.72,7.72,0,0,0,0,15.441h.654v4.914h-3.145a2.632,2.632,0,0,0,0,5.264h3.145V88.5a2.632,2.632,0,1,0,5.264,0V87.344h.654a7.72,7.72,0,0,0,0-15.441Zm-6.572,0a2.457,2.457,0,0,1,0-4.913h.654V71.9h-.654Zm6.572,10.177H144.1V77.168h.654a2.457,2.457,0,0,1,0,4.914Z" transform="translate(-61.789 -14.468)" fill="#fff"/>
    <path id="Path_1963" data-name="Path 1963" d="M233.038,114.6H223.033a6.615,6.615,0,0,0,.431-2.357v-3.322h3.38a2.632,2.632,0,1,0,0-5.264h-3.38v-3.345a2.815,2.815,0,1,1,5.629,0,2.632,2.632,0,0,0,5.264,0,8.078,8.078,0,1,0-16.157,0v3.345h-.506a2.632,2.632,0,1,0,0,5.264h.506v3.322a1.339,1.339,0,0,1-.4.954,3.906,3.906,0,0,0,2.762,6.667h12.471a2.632,2.632,0,1,0,0-5.264Z" transform="translate(-101.859 -30.713)" fill="#cbffed"/>
    <path id="Path_1964" data-name="Path 1964" d="M440.027,217.711h-1.711V216a2.632,2.632,0,0,0-5.264,0v1.711h-1.711a2.632,2.632,0,1,0,0,5.264h1.711v1.711a2.632,2.632,0,0,0,5.264,0v-1.711h1.711a2.632,2.632,0,1,0,0-5.264Z" transform="translate(-203.048 -88.085)" fill="#00df9a"/>
    <path id="Path_1965" data-name="Path 1965" d="M308.076,31.732h-1.711V30.021a2.632,2.632,0,0,0-5.264,0v1.711h-1.711a2.632,2.632,0,1,0,0,5.264H301.1v1.711a2.632,2.632,0,0,0,5.264,0V37h1.711a2.632,2.632,0,0,0,0-5.264Z" transform="translate(-140.553 0)" fill="#01eca5"/>
    <path id="Path_1966" data-name="Path 1966" d="M66.817,163.673H65.106v-1.711a2.632,2.632,0,1,0-5.264,0v1.711H58.132a2.632,2.632,0,0,0,0,5.264h1.711v1.711a2.632,2.632,0,0,0,5.264,0v-1.711h1.711a2.632,2.632,0,0,0,0-5.264Z" transform="translate(-26.286 -62.491)" fill="#00df9a"/>
    <path id="Path_1967" data-name="Path 1967" d="M421.894,179.259a7.687,7.687,0,1,1,7.687-7.687A7.7,7.7,0,0,1,421.894,179.259Zm0-10.109a2.423,2.423,0,1,0,2.423,2.423A2.426,2.426,0,0,0,421.894,169.15Z" transform="translate(-196.179 -64.649)" fill="url(#linear-gradient-4)"/>
    <path id="Path_1968" data-name="Path 1968" d="M29.481,421.867a7.687,7.687,0,1,1,7.687-7.687A7.7,7.7,0,0,1,29.481,421.867Zm0-10.11a2.423,2.423,0,1,0,2.423,2.423A2.425,2.425,0,0,0,29.481,411.758Z" transform="translate(-10.322 -179.554)" fill="url(#linear-gradient-4)"/>
  </g>
</svg>
