<svg xmlns="http://www.w3.org/2000/svg" xmlns:xlink="http://www.w3.org/1999/xlink" width="346.929" height="257.079" viewBox="0 0 346.929 257.079">
  <defs>
    <linearGradient id="linear-gradient" x1="0.623" y1="1.207" x2="0.799" y2="0.021" gradientUnits="objectBoundingBox">
      <stop offset="0" stop-color="#f8f9f9"/>
      <stop offset="1" stop-color="#beffeb"/>
    </linearGradient>
    <linearGradient id="linear-gradient-2" x1="1.056" x2="-0.359" y2="2.745" gradientUnits="objectBoundingBox">
      <stop offset="0" stop-color="#00eba2"/>
      <stop offset="0.473" stop-color="#006782"/>
      <stop offset="1" stop-color="#001d6d"/>
    </linearGradient>
  </defs>
  <g id="stock-market" transform="translate(49.497 -1.036)">
    <path id="Path_1876" data-name="Path 1876" d="M340.067,51.135C324.918,12.588,278.253-10.529,238.729,4.769c-46.463,17.983-29.32,88.925-71.136,103.732-22.136,7.838-54.86-21.442-77.225-25.932-41.212-8.274-78.52,20.8-87.707,61.074-9.373,41.083,5.66,95.954,50.8,107.1,53.767,13.282,81.774-35.051,126.879-48.93,46.287-14.242,97.752,19.394,136.071-21.531C344.718,150.052,355.068,89.3,340.067,51.135Z" transform="translate(-49.497 1.036)" fill="url(#linear-gradient)"/>
    <path id="Path_1877" data-name="Path 1877" d="M249.731,96.389a37.031,37.031,0,0,0-36.346-37.02v-3.14a10.935,10.935,0,0,0-10.936-10.936H95.359A10.935,10.935,0,0,0,84.423,56.229v83.194a37.029,37.029,0,0,0,0,73.46v52.911A10.935,10.935,0,0,0,95.359,276.73h107.09a10.935,10.935,0,0,0,10.936-10.936V133.409a37.03,37.03,0,0,0,36.346-37.02Z" transform="translate(-34.31 -18.615)" fill="#00df9a" opacity="0.2"/>
    <path id="Path_1878" data-name="Path 1878" d="M413.576,372.435l-12.738-13.483a2.6,2.6,0,0,0-3.786,0l-12.733,13.483a2.6,2.6,0,0,0,1.89,4.39h6.317V396.75a2.6,2.6,0,0,0,2.6,2.6h7.634a2.6,2.6,0,0,0,2.6-2.6V376.825h6.317a2.6,2.6,0,0,0,1.89-4.39Z" transform="translate(-193.183 -168.541)" fill="#00cf8f" opacity="0.2"/>
    <path id="Path_1879" data-name="Path 1879" d="M52.625,172.049a2.6,2.6,0,0,0,2.6-2.6V149.52h6.317a2.6,2.6,0,0,0,1.89-4.39L50.7,131.648a2.6,2.6,0,0,0-3.786,0L34.179,145.13a2.6,2.6,0,0,0,1.89,4.39h6.317v19.924a2.6,2.6,0,0,0,2.6,2.6Z" transform="translate(-25.384 -59.608)" fill="#00df9a" opacity="0.2"/>
    <path id="Path_1880" data-name="Path 1880" d="M261.142,38.229V247.795a10.935,10.935,0,0,1-10.936,10.936H143.116a10.935,10.935,0,0,1-10.936-10.936V38.229a10.935,10.935,0,0,1,10.936-10.936h107.09A10.935,10.935,0,0,1,261.142,38.229Z" transform="translate(-72.694 -9.989)" fill="#d4ffec"/>
    <path id="Path_1881" data-name="Path 1881" d="M345.1,71.928v74.063c-.229.005-.464.005-.693.005a37.037,37.037,0,0,1,0-74.073C344.636,71.923,344.87,71.923,345.1,71.928Z" transform="translate(-156.651 -31.377)" fill="#00df9a"/>
    <path id="Path_1882" data-name="Path 1882" d="M173.919,262.13a37.058,37.058,0,0,1-41.739,36.74V225.39a37.058,37.058,0,0,1,41.739,36.74Z" transform="translate(-72.694 -104.782)" fill="#00df9a"/>
    <path id="Path_1883" data-name="Path 1883" d="M258.359,140.137v34.829a2.6,2.6,0,0,1-2.6,2.6H172.334a2.6,2.6,0,0,1-2.6-2.6V140.137a2.6,2.6,0,0,1,2.6-2.6h83.421a2.6,2.6,0,0,1,2.6,2.6Z" transform="translate(-94.689 -77.82)" fill="rgba(0,223,154,0.31)"/>
    <path id="Path_1885" data-name="Path 1885" d="M261.142,55.519v-17.3a10.936,10.936,0,0,0-10.936-10.936H143.118a10.936,10.936,0,0,0-10.936,10.936v17.3Z" transform="translate(-72.694 -9.986)" fill="url(#linear-gradient-2)"/>
    <path id="Path_1886" data-name="Path 1886" d="M359.27,38.223V55.518H347.876V38.223A10.935,10.935,0,0,0,336.94,27.287h11.394A10.934,10.934,0,0,1,359.27,38.223Z" transform="translate(-170.822 -9.986)" fill="rgba(0,223,154,0.16)"/>
    <circle id="Ellipse_153" data-name="Ellipse 153" cx="2.911" cy="2.911" r="2.911" transform="translate(74.621 29.073)" fill="#fff"/>
    <circle id="Ellipse_154" data-name="Ellipse 154" cx="2.911" cy="2.911" r="2.911" transform="translate(84.99 29.073)" fill="#fff"/>
    <circle id="Ellipse_155" data-name="Ellipse 155" cx="2.911" cy="2.911" r="2.911" transform="translate(95.359 29.073)" fill="#fff"/>
    <circle id="Ellipse_156" data-name="Ellipse 156" cx="37.038" cy="37.038" r="37.038" transform="translate(150.719 31.363)" fill="#fff"/>
    <circle id="Ellipse_157" data-name="Ellipse 157" cx="37.038" cy="37.038" r="37.038" transform="translate(27.151 111.127)" fill="#fff"/>
    <path id="Path_1887" data-name="Path 1887" d="M402.319,354.435l12.733-13.483a2.6,2.6,0,0,1,3.786,0l12.738,13.483a2.6,2.6,0,0,1-1.89,4.39h-6.317V378.75a2.6,2.6,0,0,1-2.6,2.6H413.13a2.6,2.6,0,0,1-2.6-2.6V358.825H404.21A2.6,2.6,0,0,1,402.319,354.435Z" transform="translate(-201.809 -159.915)" fill="#00df9a"/>
    <path id="Path_1888" data-name="Path 1888" d="M52.179,127.13l12.733-13.483a2.6,2.6,0,0,1,3.786,0L81.436,127.13a2.6,2.6,0,0,1-1.89,4.39H73.229v19.924a2.6,2.6,0,0,1-2.6,2.6H62.99a2.6,2.6,0,0,1-2.6-2.6V131.52H54.07A2.6,2.6,0,0,1,52.179,127.13Z" transform="translate(-34.01 -50.982)" fill="#00df9a"/>
    <path id="Path_1889" data-name="Path 1889" d="M171.564,136.418H165.08a1.94,1.94,0,1,1,0-3.881h6.484a1.94,1.94,0,1,1,0,3.881Z" transform="translate(-78.531 -64.716)" fill="#fff"/>
    <path id="Path_1890" data-name="Path 1890" d="M185.187,167.645H165.08a1.94,1.94,0,1,1,0-3.881h20.107a1.94,1.94,0,1,1,0,3.881Z" transform="translate(-78.531 -83.824)" fill="#fff"/>
    <path id="Path_1891" data-name="Path 1891" d="M194.777,184.528h-29.7a1.94,1.94,0,0,1,0-3.881h29.7a1.94,1.94,0,1,1,0,3.881Z" transform="translate(-78.531 -94.155)" fill="#fff"/>
    <path id="Path_1892" data-name="Path 1892" d="M233.658,388.521v4.085a1.884,1.884,0,0,1-1.884,1.884H228.39a1.884,1.884,0,0,1-1.884-1.884v-4.085a1.884,1.884,0,0,1,1.884-1.884h3.384A1.884,1.884,0,0,1,233.658,388.521Z" transform="translate(-117.898 -182.199)" fill="rgba(26,41,128,0.24)"/>
    <path id="Path_1893" data-name="Path 1893" d="M256.285,377.667V387.4a1.884,1.884,0,0,1-1.884,1.884h-3.384a1.884,1.884,0,0,1-1.884-1.884v-9.737a1.884,1.884,0,0,1,1.884-1.884H254.4A1.884,1.884,0,0,1,256.285,377.667Z" transform="translate(-128.742 -176.998)" fill="rgba(26,41,128,0.24)"/>
    <path id="Path_1894" data-name="Path 1894" d="M211.032,388.521v4.085a1.884,1.884,0,0,1-1.884,1.884h-3.384a1.884,1.884,0,0,1-1.884-1.884v-4.085a1.884,1.884,0,0,1,1.884-1.884h3.384A1.884,1.884,0,0,1,211.032,388.521Z" transform="translate(-107.055 -182.199)" fill="rgba(26,41,128,0.24)"/>
    <path id="Path_1895" data-name="Path 1895" d="M188.405,388.521v4.085a1.884,1.884,0,0,1-1.884,1.884h-3.384a1.884,1.884,0,0,1-1.884-1.884v-4.085a1.884,1.884,0,0,1,1.884-1.884h3.384A1.884,1.884,0,0,1,188.405,388.521Z" transform="translate(-96.211 -182.199)" fill="rgba(26,41,128,0.24)"/>
    <path id="Path_1896" data-name="Path 1896" d="M165.779,388.521v4.085a1.884,1.884,0,0,1-1.884,1.884h-3.384a1.884,1.884,0,0,1-1.884-1.884v-4.085a1.884,1.884,0,0,1,1.884-1.884H163.9A1.884,1.884,0,0,1,165.779,388.521Z" transform="translate(-85.368 -182.199)" fill="rgba(26,41,128,0.24)"/>
    <path id="Path_1897" data-name="Path 1897" d="M278.911,370.431v13.5a1.884,1.884,0,0,1-1.884,1.884h-3.384a1.884,1.884,0,0,1-1.884-1.884v-13.5a1.884,1.884,0,0,1,1.884-1.884h3.384A1.884,1.884,0,0,1,278.911,370.431Z" transform="translate(-139.585 -173.53)" fill="rgba(26,41,128,0.24)"/>
    <path id="Path_1898" data-name="Path 1898" d="M301.538,377.667V387.4a1.884,1.884,0,0,1-1.884,1.884H296.27a1.884,1.884,0,0,1-1.884-1.884v-9.737a1.884,1.884,0,0,1,1.884-1.884h3.384A1.884,1.884,0,0,1,301.538,377.667Z" transform="translate(-150.428 -176.998)" fill="rgba(26,41,128,0.24)"/>
    <path id="Path_1899" data-name="Path 1899" d="M324.164,359.578v19.157a1.884,1.884,0,0,1-1.884,1.884H318.9a1.884,1.884,0,0,1-1.884-1.884V359.578a1.884,1.884,0,0,1,1.884-1.884h3.384A1.884,1.884,0,0,1,324.164,359.578Z" transform="translate(-161.272 -168.329)" fill="#00df9a"/>
    <path id="Path_1900" data-name="Path 1900" d="M346.791,341.489v28.577a1.884,1.884,0,0,1-1.884,1.884h-3.384a1.884,1.884,0,0,1-1.884-1.884V341.489a1.884,1.884,0,0,1,1.884-1.884h3.384A1.884,1.884,0,0,1,346.791,341.489Z" transform="translate(-172.115 -159.66)" fill="#00df9a"/>
    <path id="Path_1901" data-name="Path 1901" d="M47.6,90.881a7.6,7.6,0,1,1,5.376-2.224h0A7.579,7.579,0,0,1,47.6,90.881Zm0-10a2.4,2.4,0,1,0,1.7,4.092h0a2.4,2.4,0,0,0-1.7-4.091Z" transform="translate(-28.515 -33.177)" fill="url(#linear-gradient-2)"/>
    <path id="Path_1902" data-name="Path 1902" d="M461.921,273.113a7.6,7.6,0,1,1,5.377-2.224h0A7.581,7.581,0,0,1,461.921,273.113Zm3.536-4.065h.005Zm-3.536-5.933a2.4,2.4,0,1,0,1.695.7,2.389,2.389,0,0,0-1.695-.7Z" transform="translate(-227.075 -120.509)" fill="url(#linear-gradient-2)"/>
    <path id="Path_1903" data-name="Path 1903" d="M91.5,450.294a7.6,7.6,0,1,1,5.377-2.224h0a7.581,7.581,0,0,1-5.377,2.224Zm0-10a2.4,2.4,0,1,0,1.695,4.093h0A2.4,2.4,0,0,0,91.5,440.3Z" transform="translate(-62.555 -204.419)" fill="#cbf6e8"/>
    <path id="Path_1904" data-name="Path 1904" d="M80.673,46.139H78.981V44.447a2.6,2.6,0,1,0-5.208,0v1.692H72.081a2.6,2.6,0,0,0,0,5.208h1.692v1.692a2.6,2.6,0,1,0,5.208,0V51.347h1.692a2.6,2.6,0,0,0,0-5.208Z" transform="translate(-42.644 -16.962)" fill="#00df9a"/>
    <path id="Path_1905" data-name="Path 1905" d="M475.112,329.479H473.42v-1.692a2.6,2.6,0,0,0-5.208,0v1.692H466.52a2.6,2.6,0,1,0,0,5.208h1.692v1.692a2.6,2.6,0,1,0,5.208,0v-1.692h1.692a2.6,2.6,0,1,0,0-5.208Z" transform="translate(-231.673 -152.748)" fill="#00df9a"/>
    <path id="Path_1906" data-name="Path 1906" d="M352.669,127.649a28.06,28.06,0,1,1,28.06-28.06A28.092,28.092,0,0,1,352.669,127.649Zm0-50.913a22.853,22.853,0,1,0,22.853,22.853,22.879,22.879,0,0,0-22.853-22.853Z" transform="translate(-164.912 -31.188)" fill="#a4f2da"/>
    <path id="Path_1908" data-name="Path 1908" d="M115.385,280.817a28.06,28.06,0,1,1,28.06-28.06A28.092,28.092,0,0,1,115.385,280.817Zm0-50.913a22.853,22.853,0,1,0,22.853,22.853A22.879,22.879,0,0,0,115.385,229.9Z" transform="translate(-51.197 -104.591)" fill="#a4f2da"/>
    <path id="Path_1915" data-name="Path 1915" d="M321.271,276.135a2.606,2.606,0,0,1-3.682,0l-14.644-14.649h-10.1a7.764,7.764,0,0,1-5.525-2.286l-9.686-9.686a2.584,2.584,0,0,0-1.844-.766H262.925a2.584,2.584,0,0,0-1.844.766l-25.632,25.632a7.756,7.756,0,0,1-5.525,2.291H211.14a38.506,38.506,0,0,0,1.828-5.208h16.956a2.584,2.584,0,0,0,1.844-.766L257.4,245.831a7.747,7.747,0,0,1,5.525-2.291h12.868a7.747,7.747,0,0,1,5.525,2.291L291,255.518a2.579,2.579,0,0,0,1.844.76h11.176a2.605,2.605,0,0,1,1.844.766l15.4,15.409a2.6,2.6,0,0,1,0,3.682Z" transform="translate(-110.534 -113.622)" fill="#fff"/>
    <path id="Path_1916" data-name="Path 1916" d="M335.41,204.9l-15.42,15.42a7.773,7.773,0,0,1-5.525,2.286H279.449a2.572,2.572,0,0,0-1.838.766l-8.171,8.171a7.764,7.764,0,0,1-5.525,2.286h-19.9a2.584,2.584,0,0,0-1.844.766l-6.916,6.916a7.764,7.764,0,0,1-5.525,2.286H217.16c.057-.88.089-1.765.089-2.656,0-.859-.026-1.708-.083-2.552h12.561a2.584,2.584,0,0,0,1.844-.766l6.916-6.916a7.764,7.764,0,0,1,5.525-2.286h19.9a2.6,2.6,0,0,0,1.844-.76l8.171-8.171a7.744,7.744,0,0,1,5.52-2.291h35.016a2.61,2.61,0,0,0,1.838-.76l15.42-15.42a2.605,2.605,0,0,1,3.687,3.682Z" transform="translate(-113.419 -92.976)" fill="url(#linear-gradient-2)"/>
    <path id="Path_1917" data-name="Path 1917" d="M324.21,245.777l-23.174,23.174a7.756,7.756,0,0,1-5.525,2.291H272.539a2.591,2.591,0,0,0-1.844.76l-6.489,6.489a7.761,7.761,0,0,1-5.52,2.286H234.482a2.6,2.6,0,0,0-1.844.76l-4.958,4.963a7.773,7.773,0,0,1-5.525,2.286H194.93a40.414,40.414,0,0,0,4.4-5.208h22.825a2.6,2.6,0,0,0,1.844-.76l4.958-4.963a7.773,7.773,0,0,1,5.525-2.286h24.205a2.588,2.588,0,0,0,1.838-.76l6.489-6.489a7.764,7.764,0,0,1,5.525-2.286H295.51a2.584,2.584,0,0,0,1.844-.766L320.528,242.1a2.6,2.6,0,1,1,3.682,3.682Z" transform="translate(-102.766 -112.563)" fill="#00df9a"/>
    <g id="BitcoinSign" transform="translate(176.868 53.857)">
      <g id="Group_620" data-name="Group 620" transform="translate(0 0)">
        <path id="Path_990" data-name="Path 990" d="M30.093,20.22a4.418,4.418,0,0,0,2.451-4.8c-.326-3.381-3.248-4.515-6.937-4.838V5.89H22.749v4.567c-.752,0-1.518.015-2.282.03v-4.6H17.61v4.689c-.619.013-1.227.025-1.82.025V10.59l-3.942,0v3.048s2.111-.04,2.076,0a1.475,1.475,0,0,1,1.644,1.252V27.735a1.01,1.01,0,0,1-1.074.946c.037.032-2.079,0-2.079,0l-.567,3.409h3.719c.693,0,1.374.012,2.042.017l0,4.743h2.855V32.157c.785.016,1.543.023,2.284.022V36.85h2.858l0-4.735c4.8-.276,8.167-1.485,8.585-5.992C34.529,22.494,32.82,20.874,30.093,20.22Zm-9.558-6.378c1.612,0,6.681-.513,6.682,2.851,0,3.225-5.068,2.848-6.682,2.848Zm0,14.861V22.419c1.937,0,8.011-.557,8.011,3.141C28.547,29.106,22.471,28.7,20.533,28.7Z" transform="translate(-11.848 -5.89)" fill="#00df9a"/>
      </g>
    </g>
    <g id="ethereum" transform="translate(55.519 131.857)">
      <path id="Path_549" data-name="Path 549" d="M8.626,270.951,0,266.848l8.626,15.074,8.626-15.074Zm0,0" transform="translate(0 -250.44)" fill="#00df9a"/>
      <path id="Path_550" data-name="Path 550" d="M30.515,13.35,22.828,0l-7.7,13.365,7.7-3.65Zm0,0" transform="translate(-14.203)" fill="#00df9a"/>
      <path id="Path_551" data-name="Path 551" d="M25.98,194.643l7.028,3.329,7.04-3.334-7.04-3.329Zm0,0" transform="translate(-24.383 -179.545)" fill="#00df9a"/>
    </g>
  </g>
</svg>
