<svg xmlns="http://www.w3.org/2000/svg" xmlns:xlink="http://www.w3.org/1999/xlink" width="305.504" height="257.108" viewBox="0 0 305.504 257.108">
  <defs>
    <linearGradient id="linear-gradient" x1="-0.04" y1="1.183" x2="0.889" y2="0.035" gradientUnits="objectBoundingBox">
      <stop offset="0" stop-color="#f8f9f9"/>
      <stop offset="1" stop-color="#beffeb"/>
    </linearGradient>
    <linearGradient id="linear-gradient-2" x1="1.094" y1="0.371" x2="-0.265" y2="1.07" gradientUnits="objectBoundingBox">
      <stop offset="0" stop-color="#00eba2"/>
      <stop offset="0.473" stop-color="#006782"/>
      <stop offset="1" stop-color="#001d6d"/>
    </linearGradient>
    <linearGradient id="linear-gradient-3" x1="1.413" y1="-0.68" x2="-1.257" y2="2.359" xlink:href="#linear-gradient-2"/>
  </defs>
  <g id="chat_6_" data-name="chat (6)" transform="translate(12.807 -29.776)">
    <path id="Path_1969" data-name="Path 1969" d="M217.685,49.3c-41.23-16.131-98.324-10-129.876,18.8-22.278,20.338-5.035,26.135,10.153,63.35C108.955,158.388,0,154.681,0,203.352c0,56.267,78.912,45.6,108.2,52.042,44.773,9.848,83.832,46.686,131.67,41.829,41.646-4.228,57.522-36.908,63.314-74.372,10.789-69.8-15.71-146.244-85.5-173.549Z" transform="translate(-12.807 -10.778)" fill="url(#linear-gradient)"/>
    <path id="Path_1970" data-name="Path 1970" d="M240.071,115.054H214.4v-12.07a5.47,5.47,0,0,0-9.337-3.865l-15.93,15.935H74.98a10.93,10.93,0,0,0-10.933,10.933v18.024H47.1a10.93,10.93,0,0,0-10.933,10.933V264.277A10.934,10.934,0,0,0,47.1,275.21H72.771v12.065a5.47,5.47,0,0,0,9.337,3.865l15.93-15.93H212.191a10.934,10.934,0,0,0,10.933-10.933V246.252h16.946A10.934,10.934,0,0,0,251,235.319V125.987A10.93,10.93,0,0,0,240.071,115.054Z" transform="translate(-16.396 -25.819)" fill="#00df9a" opacity="0.2"/>
    <path id="Path_1971" data-name="Path 1971" d="M297.458,105.9V215.231a10.934,10.934,0,0,1-10.933,10.933H121.433A10.934,10.934,0,0,1,110.5,215.231V105.9a10.93,10.93,0,0,1,10.933-10.933H235.587l15.93-15.935a5.47,5.47,0,0,1,9.337,3.865v12.07h25.671A10.93,10.93,0,0,1,297.458,105.9Z" transform="translate(-50.094 -16.712)" fill="url(#linear-gradient-2)"/>
    <path id="Path_1972" data-name="Path 1972" d="M295.813,234.571V141.639a2.734,2.734,0,0,1,2.733-2.733h63.788a2.734,2.734,0,0,1,2.733,2.733v92.932a2.734,2.734,0,0,1-2.733,2.733H298.546A2.733,2.733,0,0,1,295.813,234.571Z" transform="translate(-134.104 -44.587)" fill="rgba(0,223,154,0.32)"/>
    <path id="Path_1973" data-name="Path 1973" d="M146.446,234.571V141.639a2.734,2.734,0,0,1,2.733-2.733h63.788a2.734,2.734,0,0,1,2.733,2.733v92.932a2.734,2.734,0,0,1-2.733,2.733H149.179A2.733,2.733,0,0,1,146.446,234.571Z" transform="translate(-66.39 -44.587)" fill="rgba(0,223,154,0.32)"/>
    <path id="Path_1974" data-name="Path 1974" d="M246.458,173.423V282.755a10.934,10.934,0,0,1-10.933,10.933H121.371l-15.93,15.93a5.47,5.47,0,0,1-9.337-3.865V293.688H70.433A10.934,10.934,0,0,1,59.5,282.755V173.423A10.93,10.93,0,0,1,70.433,162.49H235.524a10.93,10.93,0,0,1,10.933,10.933Z" transform="translate(-26.974 -55.278)" fill="#71f0c9"/>
    <path id="Path_1975" data-name="Path 1975" d="M264.138,173.423v97.868H115.993A17.513,17.513,0,0,1,98.5,253.8V162.49H253.2a10.93,10.93,0,0,1,10.933,10.933Z" transform="translate(-44.654 -55.278)" fill="#d4ffec"/>
    <g id="Group_643" data-name="Group 643" transform="translate(77.548 163.041)">
      <path id="Path_1978" data-name="Path 1978" d="M263.918,270.086H144.591a2.733,2.733,0,1,1,0-5.467H263.918a2.733,2.733,0,1,1,0,5.467Z" transform="translate(-141.858 -264.619)" fill="#93f5d3"/>
      <path id="Path_1979" data-name="Path 1979" d="M263.918,290.546H144.591a2.733,2.733,0,0,1,0-5.467H263.918a2.733,2.733,0,1,1,0,5.467Z" transform="translate(-141.858 -273.894)" fill="#93f5d3"/>
      <path id="Path_1980" data-name="Path 1980" d="M263.918,311.006H144.591a2.733,2.733,0,0,1,0-5.467H263.918a2.733,2.733,0,1,1,0,5.467Z" transform="translate(-141.858 -283.17)" fill="#93f5d3"/>
    </g>
    <path id="Path_1981" data-name="Path 1981" d="M177.44,224.8H145.433a3.575,3.575,0,0,1-3.575-3.575V209.96a3.575,3.575,0,0,1,3.575-3.575H177.44a3.575,3.575,0,0,1,3.575,3.575v11.262A3.575,3.575,0,0,1,177.44,224.8Z" transform="translate(-64.31 -75.178)" fill="#00df9a"/>
    <path id="Path_1982" data-name="Path 1982" d="M239.638,224.8h-8.2a3.575,3.575,0,0,1-3.575-3.575V209.96a3.575,3.575,0,0,1,3.575-3.575h8.2a3.575,3.575,0,0,1,3.575,3.575v11.262A3.575,3.575,0,0,1,239.638,224.8Z" transform="translate(-103.297 -75.178)" fill="#97ffd2"/>
    <circle id="Ellipse_165" data-name="Ellipse 165" cx="3.056" cy="3.056" r="3.056" transform="translate(84.626 137.358)" fill="#fff"/>
    <circle id="Ellipse_166" data-name="Ellipse 166" cx="3.056" cy="3.056" r="3.056" transform="translate(93.871 137.358)" fill="#fff"/>
    <circle id="Ellipse_167" data-name="Ellipse 167" cx="3.056" cy="3.056" r="3.056" transform="translate(103.115 137.358)" fill="#fff"/>
    <path id="Path_1984" data-name="Path 1984" d="M67.86,119.153a7.983,7.983,0,1,1,5.645-2.338,7.929,7.929,0,0,1-5.645,2.338Zm0-10.5a2.517,2.517,0,1,0,1.779.737A2.5,2.5,0,0,0,67.86,108.654Z" transform="translate(-27.147 -28.394)" fill="url(#linear-gradient-3)"/>
    <path id="Path_1985" data-name="Path 1985" d="M436.28,390.487a7.983,7.983,0,1,1,5.645-2.338A7.929,7.929,0,0,1,436.28,390.487Zm0-10.5a2.517,2.517,0,1,0,1.779.737A2.5,2.5,0,0,0,436.28,379.988Z" transform="translate(-194.166 -151.401)" fill="url(#linear-gradient-3)"/>
    <path id="Path_1986" data-name="Path 1986" d="M92.586,74.341H90.81V72.564a2.733,2.733,0,0,0-5.467,0v1.777H83.566a2.733,2.733,0,0,0,0,5.467h1.777v1.777a2.733,2.733,0,0,0,5.467,0V79.808h1.777a2.733,2.733,0,0,0,0-5.467Z" transform="translate(-36.645 -13.272)" fill="#00df9a"/>
    <path id="Path_1987" data-name="Path 1987" d="M472.836,352.78H471.06V351a2.733,2.733,0,0,0-5.467,0v1.777h-1.777a2.733,2.733,0,1,0,0,5.467h1.777v1.777a2.733,2.733,0,1,0,5.467,0v-1.777h1.777a2.733,2.733,0,0,0,0-5.467Z" transform="translate(-209.028 -139.5)" fill="#00df9a"/>
    <path id="Path_1988" data-name="Path 1988" d="M173.5,434.09h-1.777v-1.777a2.733,2.733,0,0,0-5.467,0v1.777h-1.777a2.733,2.733,0,0,0,0,5.467h1.777v1.777a2.733,2.733,0,1,0,5.467,0v-1.777H173.5a2.733,2.733,0,0,0,0-5.467Z" transform="translate(-73.328 -176.361)" fill="#00df9a"/>
  </g>
</svg>
