<svg xmlns="http://www.w3.org/2000/svg" width="16.091" height="28" viewBox="0 0 16.091 28">
  <g id="Arzinja_Logo" data-name="Arzinja Logo" transform="translate(0 0)">
    <path id="Path_110" data-name="Path 110" d="M753.759,507.8a10.555,10.555,0,0,0,.339,1.35,6.93,6.93,0,0,0,1.672,2.812,8.123,8.123,0,0,0,.961.822,8.036,8.036,0,0,0,8.37.665,2.752,2.752,0,0,0,.281-1.13,3.866,3.866,0,0,0-.819-2.382,4.809,4.809,0,0,1-6.164.038c-.115-.1-.228-.2-.336-.3a3.04,3.04,0,0,1-.306-.361,6.817,6.817,0,0,1-.984-3.5c-.024-.346-.039-.7-.046-1.07-.02-.978.01-2.022.041-3.085,0-.025,0-.051,0-.076,3.252-.1,6.6-.186,8.085,1.3a4.775,4.775,0,0,1,1.08,1.659,9.028,9.028,0,0,1,3.39,3.428,8.039,8.039,0,0,0-2.177-7.38,6.279,6.279,0,0,0-.911-.752v-4.352h-4.295v2.939q-.477-.054-.968-.085v-2.855h-4.295v2.852c-1.06.032-2.109.066-3.112.05C753.629,501.505,753.224,504.923,753.759,507.8Z" transform="translate(-753.45 -495.479)" fill="#fff"/>
    <path id="Path_111" data-name="Path 111" d="M768.893,650.932a8.05,8.05,0,0,0-11.681-5.292,7.268,7.268,0,0,0,.749,3.4,4.792,4.792,0,0,1,6.145-.021,4.834,4.834,0,0,1,.651.654,4.781,4.781,0,0,1,1.091,3.044,2.993,2.993,0,0,1-.028.4,4.239,4.239,0,0,1-.478,1.4,21.719,21.719,0,0,1-4.249,4.784l-.055.052a22.334,22.334,0,0,1-4.249-4.774,8.994,8.994,0,0,1-2.117-1.574,7.463,7.463,0,0,1-1.469-2.1,8.072,8.072,0,0,0-.2,1.805c0,4.443,4.764,7.774,8.046,11.161,3.372-3.508,8.046-6.717,8.046-11.161A8.073,8.073,0,0,0,768.893,650.932Z" transform="translate(-753 -635.876)" fill="#fff"/>
  </g>
</svg>
