<svg xmlns="http://www.w3.org/2000/svg" xmlns:xlink="http://www.w3.org/1999/xlink" width="186.653" height="205.579" viewBox="0 0 186.653 205.579">
  <defs>
    <linearGradient id="linear-gradient" x1="1.375" y1="0.052" x2="-0.576" y2="1.692" gradientUnits="objectBoundingBox">
      <stop offset="0" stop-color="#00eba2"/>
      <stop offset="0.473" stop-color="#006782"/>
      <stop offset="1" stop-color="#001d6d"/>
    </linearGradient>
  </defs>
  <g id="Group_644" data-name="Group 644" transform="translate(0 0)">
    <g id="Logo" transform="translate(49.624 0)">
      <path id="Path_110" data-name="Path 110" d="M755,562.055a57.1,57.1,0,0,0,1.834,7.294,37.437,37.437,0,0,0,9.033,15.193,43.793,43.793,0,0,0,5.193,4.441,43.419,43.419,0,0,0,45.227,3.593,14.867,14.867,0,0,0,1.519-6.107,20.894,20.894,0,0,0-4.427-12.874,25.986,25.986,0,0,1-33.308.2c-.624-.516-1.231-1.062-1.815-1.646A16.358,16.358,0,0,1,776.6,570.2c-3.333-4.579-4.775-11.206-5.317-18.93-.131-1.868-.21-3.8-.25-5.783-.109-5.285.054-10.927.22-16.671,0-.137.007-.273.011-.41,17.573-.533,35.639-1,43.689,7.044a25.8,25.8,0,0,1,5.837,8.966,48.778,48.778,0,0,1,18.319,18.521,43.436,43.436,0,0,0-11.765-39.877,33.9,33.9,0,0,0-4.924-4.065V495.479H799.212v15.882q-2.579-.294-5.23-.457V495.479H770.775v15.412c-5.726.174-11.394.354-16.814.268C754.295,528.043,752.107,546.507,755,562.055Z" transform="translate(-753.327 -495.479)" fill="url(#linear-gradient)"/>
      <path id="Path_111" data-name="Path 111" d="M838.874,678.508a43.5,43.5,0,0,0-63.117-28.594c.331,7.572,1.38,14.157,4.049,18.359a25.891,25.891,0,0,1,33.205-.112,26.123,26.123,0,0,1,3.52,3.535,25.832,25.832,0,0,1,5.895,16.448,16.233,16.233,0,0,1-.151,2.179,22.9,22.9,0,0,1-2.583,7.562c-4.39,8.324-13.487,16.91-22.959,25.852l-.3.282c-9.11-8.573-18.375-17.347-22.961-25.8a48.605,48.605,0,0,1-11.438-8.5,40.343,40.343,0,0,1-7.936-11.327,43.611,43.611,0,0,0-1.1,9.753c0,24.01,25.744,42,43.474,60.305,18.22-18.955,43.474-36.295,43.474-60.305A43.636,43.636,0,0,0,838.874,678.508Z" transform="translate(-753 -597.155)" fill="url(#linear-gradient)"/>
    </g>
    <g id="Group_57" data-name="Group 57" transform="translate(0 172.5)">
      <path id="Path_112" data-name="Path 112" d="M1405.158,635.751a10.832,10.832,0,0,0,1.583-5.758,10.5,10.5,0,0,0-.78-3.923,11.712,11.712,0,0,0-2.156-3.487,10.752,10.752,0,0,0-3.28-2.477,9.254,9.254,0,0,0-4.152-.94h-14.406V651.74h6.332V640.821h6.239l6.653,10.919h7.111l-7.432-12.25A9.083,9.083,0,0,0,1405.158,635.751Zm-5.116-3.693a5.6,5.6,0,0,1-.872,1.675,4.156,4.156,0,0,1-1.307,1.124,3.349,3.349,0,0,1-1.629.413H1388.3V624.717h7.662a3.7,3.7,0,0,1,1.628.39,4.465,4.465,0,0,1,1.422,1.1,5.521,5.521,0,0,1,.987,1.675,5.891,5.891,0,0,1,.367,2.111A6.5,6.5,0,0,1,1400.042,632.058Z" transform="translate(-1348.784 -619.166)" fill="#313f41"/>
      <path id="Path_113" data-name="Path 113" d="M1610.982,623.937v-4.771h-25.188v5.551h17.893l-18.4,22.252v4.772h25.83v-5.552H1593.18Z" transform="translate(-1522.566 -619.166)" fill="#313f41"/>
      <path id="Path_116" data-name="Path 116" d="M1166.024,619.166l-12.433,32.574h6.515l1.187-3.453,12.352-7.811,3.85,11.264h6.515l-12.388-32.574Zm-1.538,19.825,4.337-12.622,2.779,8.131Z" transform="translate(-1153.591 -619.166)" fill="#313f41"/>
      <rect id="Rectangle_17" data-name="Rectangle 17" width="6.331" height="32.574" transform="translate(92.96 0)" fill="#00df9a"/>
      <path id="Path_114" data-name="Path 114" d="M1889.891,640.545l-16.975-21.38h-4.909V651.74h6.331V630.865l16.746,20.875h5.138V619.211h-6.331Z" transform="translate(-1764.206 -619.166)" fill="#00df9a"/>
      <path id="Path_115" data-name="Path 115" d="M2099.6,635.728q0,2.753-.183,4.794a11.186,11.186,0,0,1-.78,3.418,4.2,4.2,0,0,1-1.744,2.042,6.108,6.108,0,0,1-3.074.665,10.17,10.17,0,0,1-3.487-.551,9.632,9.632,0,0,1-2.156-1.009l-1.422,5.138a12.16,12.16,0,0,0,7.065,2.019,14.5,14.5,0,0,0,6.423-1.193,8.521,8.521,0,0,0,3.647-3.349,13.64,13.64,0,0,0,1.652-5.207,53.649,53.649,0,0,0,.39-6.767V619.166H2099.6Z" transform="translate(-1951.172 -619.166)" fill="#00df9a"/>
      <path id="Path_117" data-name="Path 117" d="M2252.792,651.74h6.515l-12.433-32.574h-5.6l-12.387,32.574h6.515l3.85-11.264,12.353,7.811Zm-11.5-17.24,2.779-8.131,4.336,12.622Z" transform="translate(-2072.654 -619.166)" fill="#00df9a"/>
    </g>
  </g>
</svg>
