<svg xmlns="http://www.w3.org/2000/svg" width="64" height="50.655" viewBox="0 0 64 50.655">
  <g id="money_4_" data-name="money (4)" transform="translate(0 -52)">
    <path id="Path_1853" data-name="Path 1853" d="M65.379,156H12.414A4.427,4.427,0,0,0,8,160.414V186.9a4.427,4.427,0,0,0,4.414,4.414H65.379a4.427,4.427,0,0,0,4.414-4.414V160.414A4.427,4.427,0,0,0,65.379,156ZM38.9,186.9a13.241,13.241,0,1,1,13.241-13.241A13.28,13.28,0,0,1,38.9,186.9Z" transform="translate(-6.897 -88.655)" fill="rgba(255,255,255,0.25)"/>
    <g id="Group_629" data-name="Group 629" transform="translate(0 52)">
      <path id="Path_1854" data-name="Path 1854" d="M58.483,116H5.517A5.464,5.464,0,0,0,0,121.517V148a5.464,5.464,0,0,0,5.517,5.517H58.483A5.464,5.464,0,0,0,64,148V121.517A5.464,5.464,0,0,0,58.483,116Zm3.31,32a3.251,3.251,0,0,1-3.31,3.31H5.517A3.251,3.251,0,0,1,2.207,148V121.517a3.251,3.251,0,0,1,3.31-3.31H58.483a3.251,3.251,0,0,1,3.31,3.31Z" transform="translate(0 -107.172)" fill="#fff"/>
      <path id="Path_1855" data-name="Path 1855" d="M32,85.1a1.043,1.043,0,0,0,1.1,1.1H86.069a1.1,1.1,0,1,0,0-2.207H33.1A1.043,1.043,0,0,0,32,85.1Z" transform="translate(-27.586 -79.586)" fill="#fff"/>
      <path id="Path_1856" data-name="Path 1856" d="M109.241,52H65.1a1.1,1.1,0,0,0,0,2.207h44.138a1.1,1.1,0,0,0,0-2.207Z" transform="translate(-55.172 -52)" fill="#fff"/>
      <path id="Path_1857" data-name="Path 1857" d="M142.345,148a14.345,14.345,0,1,0,14.345,14.345A14.316,14.316,0,0,0,142.345,148Zm0,26.483a12.138,12.138,0,1,1,12.138-12.138A12.1,12.1,0,0,1,142.345,174.483Z" transform="translate(-110.345 -134.759)" fill="#fff"/>
      <path id="Path_1858" data-name="Path 1858" d="M195.31,186.621h6.621a1.1,1.1,0,1,0,0-2.207h-3.31V181.1a1.1,1.1,0,0,0-2.207,0v3.31h-1.1a3.31,3.31,0,0,0,0,6.621h4.414a1.1,1.1,0,1,1,0,2.207H193.1a1.1,1.1,0,1,0,0,2.207h3.31v3.31a1.1,1.1,0,0,0,2.207,0v-3.31h1.1a3.31,3.31,0,0,0,0-6.621H195.31a1.1,1.1,0,1,1,0-2.207Z" transform="translate(-165.517 -162.345)" fill="#fff"/>
      <path id="Path_1859" data-name="Path 1859" d="M353.1,214.207h4.414a1.1,1.1,0,1,0,0-2.207H353.1a1.1,1.1,0,1,0,0,2.207Z" transform="translate(-303.448 -189.931)" fill="#fff"/>
      <path id="Path_1860" data-name="Path 1860" d="M361.931,244H353.1a1.1,1.1,0,1,0,0,2.207h8.828a1.1,1.1,0,1,0,0-2.207Z" transform="translate(-303.448 -217.517)" fill="#fff"/>
      <path id="Path_1861" data-name="Path 1861" d="M357.517,278.207a1.1,1.1,0,0,0,0-2.207H353.1a1.1,1.1,0,1,0,0,2.207Z" transform="translate(-303.448 -245.103)" fill="#fff"/>
      <path id="Path_1862" data-name="Path 1862" d="M65.1,212a1.1,1.1,0,1,0,0,2.207h4.414a1.1,1.1,0,1,0,0-2.207Z" transform="translate(-55.172 -189.931)" fill="#fff"/>
      <path id="Path_1863" data-name="Path 1863" d="M33.1,246.207h8.828a1.1,1.1,0,0,0,0-2.207H33.1a1.1,1.1,0,0,0,0,2.207Z" transform="translate(-27.586 -217.517)" fill="#fff"/>
      <path id="Path_1864" data-name="Path 1864" d="M69.517,276H65.1a1.1,1.1,0,0,0,0,2.207h4.414a1.1,1.1,0,0,0,0-2.207Z" transform="translate(-55.172 -245.103)" fill="#fff"/>
      <path id="Path_1865" data-name="Path 1865" d="M46.345,340H33.1a1.1,1.1,0,0,0,0,2.207H46.345a1.1,1.1,0,0,0,0-2.207Z" transform="translate(-27.586 -300.276)" fill="#fff"/>
      <path id="Path_1866" data-name="Path 1866" d="M334.345,340H321.1a1.1,1.1,0,1,0,0,2.207h13.241a1.1,1.1,0,0,0,0-2.207Z" transform="translate(-275.862 -300.276)" fill="#fff"/>
      <path id="Path_1867" data-name="Path 1867" d="M33.1,150.207H46.345a1.1,1.1,0,1,0,0-2.207H33.1a1.1,1.1,0,1,0,0,2.207Z" transform="translate(-27.586 -134.759)" fill="#fff"/>
      <path id="Path_1868" data-name="Path 1868" d="M334.345,148H321.1a1.1,1.1,0,1,0,0,2.207h13.241a1.1,1.1,0,1,0,0-2.207Z" transform="translate(-275.862 -134.759)" fill="#fff"/>
    </g>
  </g>
</svg>
