<svg xmlns="http://www.w3.org/2000/svg" xmlns:xlink="http://www.w3.org/1999/xlink" width="93.103" height="100" viewBox="0 0 93.103 100">
  <defs>
    <linearGradient id="linear-gradient" x1="1.318" y1="1.145" x2="-1.28" y2="0.131" gradientUnits="objectBoundingBox">
      <stop offset="0" stop-color="#00eba2"/>
      <stop offset="0.473" stop-color="#1588a7"/>
      <stop offset="1" stop-color="#25449b"/>
    </linearGradient>
  </defs>
  <g id="money" transform="translate(-16)">
    <circle id="Ellipse_146" data-name="Ellipse 146" cx="20.69" cy="20.69" r="20.69" transform="translate(45.31 22.414)" fill="rgba(0,223,154,0.55)"/>
    <g id="Group_612" data-name="Group 612" transform="translate(16)">
      <path id="Path_965" data-name="Path 965" d="M21.172,86.207h2.069a5.1,5.1,0,0,0-.345,1.724v6.9A5.08,5.08,0,0,0,28.069,100h75.862a5.08,5.08,0,0,0,5.172-5.172v-6.9a5.08,5.08,0,0,0-5.172-5.172h-2.069a5.1,5.1,0,0,0,.345-1.724v-6.9a5.08,5.08,0,0,0-5.172-5.172H81.345A34.768,34.768,0,0,0,91.517,61.9h.172c.172,0,0,0,0-.172a36.214,36.214,0,0,0,0-51.034v-.172c0-.172,0,0-.172,0a36.214,36.214,0,0,0-51.035,0H40.31v.172a36.214,36.214,0,0,0,0,51.034V61.9h.172a34.768,34.768,0,0,0,10.172,7.069H21.172A5.08,5.08,0,0,0,16,74.138v6.9A5.08,5.08,0,0,0,21.172,86.207Zm84.483,1.724v6.9a1.629,1.629,0,0,1-1.724,1.724H81.517V91.379a1.724,1.724,0,0,0-3.448,0v5.172H53.931V91.379a1.724,1.724,0,1,0-3.448,0v5.172H28.069a1.629,1.629,0,0,1-1.724-1.724v-6.9a1.629,1.629,0,0,1,1.724-1.724H36.69v5.172a1.724,1.724,0,0,0,3.448,0V86.207H64.276v5.172a1.724,1.724,0,0,0,3.448,0V86.207H91.862v5.172a1.724,1.724,0,0,0,3.448,0V86.207h8.621A1.629,1.629,0,0,1,105.655,87.931ZM47.724,54.483a1.667,1.667,0,0,0-2.414,0L41.69,58.1a32.237,32.237,0,0,1-8.276-20.172h5a1.724,1.724,0,1,0,0-3.448h-5A32.237,32.237,0,0,1,41.69,14.31l3.621,3.621a1.667,1.667,0,0,0,2.414,0,1.667,1.667,0,0,0,0-2.414L44.1,11.9A32.237,32.237,0,0,1,64.276,3.621v5a1.724,1.724,0,0,0,3.448,0v-5A32.237,32.237,0,0,1,87.9,11.9l-3.621,3.621a1.667,1.667,0,0,0,0,2.414,1.667,1.667,0,0,0,2.414,0L90.31,14.31a32.237,32.237,0,0,1,8.276,20.172h-5a1.724,1.724,0,1,0,0,3.448h5A32.237,32.237,0,0,1,90.31,58.1L86.69,54.483A1.707,1.707,0,1,0,84.276,56.9L87.9,60.517a32.237,32.237,0,0,1-20.172,8.276v-5a1.724,1.724,0,0,0-3.448,0v5A32.237,32.237,0,0,1,44.1,60.517L47.724,56.9A1.667,1.667,0,0,0,47.724,54.483ZM19.448,74.138a1.629,1.629,0,0,1,1.724-1.724h8.621v5.172a1.724,1.724,0,1,0,3.448,0V72.414H57.379v5.172a1.724,1.724,0,1,0,3.448,0V72.414H84.966v5.172a1.724,1.724,0,1,0,3.448,0V72.414h8.621a1.629,1.629,0,0,1,1.724,1.724v6.9a1.629,1.629,0,0,1-1.724,1.724H74.621V77.586a1.724,1.724,0,0,0-3.448,0v5.172H47.034V77.586a1.724,1.724,0,0,0-3.448,0v5.172H21.172a1.629,1.629,0,0,1-1.724-1.724Z" transform="translate(-16)" fill="url(#linear-gradient)"/>
      <path id="Path_966" data-name="Path 966" d="M166.414,108.828A22.414,22.414,0,1,0,144,86.414,22.369,22.369,0,0,0,166.414,108.828Zm0-41.379a18.966,18.966,0,1,1-18.966,18.966A18.911,18.911,0,0,1,166.414,67.448Z" transform="translate(-116.414 -50.207)" fill="url(#linear-gradient)"/>
      <path id="Path_967" data-name="Path 967" d="M209.724,145.241a1.565,1.565,0,0,0,1.207-.517l13.793-13.793a1.707,1.707,0,0,0-2.414-2.414L208.517,142.31a1.667,1.667,0,0,0,0,2.414A1.565,1.565,0,0,0,209.724,145.241Z" transform="translate(-166.621 -100.414)" fill="url(#linear-gradient)"/>
      <path id="Path_968" data-name="Path 968" d="M209.724,138.345a1.565,1.565,0,0,0,1.207-.517l6.9-6.9a1.707,1.707,0,0,0-2.414-2.414l-6.9,6.9a1.667,1.667,0,0,0,0,2.414A1.565,1.565,0,0,0,209.724,138.345Z" transform="translate(-166.621 -100.414)" fill="url(#linear-gradient)"/>
      <path id="Path_969" data-name="Path 969" d="M247.414,160.517l-6.9,6.9a1.667,1.667,0,0,0,0,2.414,1.667,1.667,0,0,0,2.414,0l6.9-6.9a1.707,1.707,0,1,0-2.414-2.414Z" transform="translate(-191.724 -125.517)" fill="url(#linear-gradient)"/>
    </g>
  </g>
</svg>
