<svg xmlns="http://www.w3.org/2000/svg" xmlns:xlink="http://www.w3.org/1999/xlink" width="314.518" height="252.079" viewBox="0 0 314.518 252.079">
  <defs>
    <linearGradient id="linear-gradient" x1="-0.145" y1="1.351" x2="0.866" y2="0.276" gradientUnits="objectBoundingBox">
      <stop offset="0" stop-color="#f8f9f9"/>
      <stop offset="1" stop-color="#beffeb"/>
    </linearGradient>
    <linearGradient id="linear-gradient-2" x1="1.332" y1="0.631" x2="-1.296" y2="0.694" gradientUnits="objectBoundingBox">
      <stop offset="0" stop-color="#00eba2"/>
      <stop offset="0.473" stop-color="#006782"/>
      <stop offset="1" stop-color="#001d6d"/>
    </linearGradient>
    <linearGradient id="linear-gradient-3" x1="2.13" y1="-0.691" x2="-2.853" y2="3.778" xlink:href="#linear-gradient-2"/>
  </defs>
  <g id="money_5_" data-name="money (5)" transform="translate(1.518 -35.06)">
    <path id="Path_1918" data-name="Path 1918" d="M213.428,49.131C173,33.315,117.026,39.324,86.092,67.565c-21.842,19.94-4.937,25.624,9.955,62.111C106.824,156.084,0,152.449,0,200.168c0,55.167,77.369,44.709,106.081,51.024,43.9,9.655,82.193,45.773,129.095,41.011,40.831-4.145,56.4-36.186,62.076-72.918,10.578-68.433-15.4-143.384-83.823-170.155Z" transform="translate(313 327.693) rotate(180)" fill="url(#linear-gradient)"/>
    <path id="Path_1919" data-name="Path 1919" d="M247.635,129.9H47.62a11.19,11.19,0,0,0-11.19,11.19V249.329a11.184,11.184,0,0,0,8.393,10.823v6.037a11.184,11.184,0,0,0,8.393,10.823v5.807c0,.358.017.711.05,1.063a11.184,11.184,0,0,0,11.14,10.127H230.85a11.184,11.184,0,0,0,11.14-10.127c.034-.352.05-.705.05-1.063v-5.807a11.185,11.185,0,0,0,8.393-10.823v-6.037a11.185,11.185,0,0,0,8.393-10.823V141.091A11.19,11.19,0,0,0,247.635,129.9Z" transform="translate(-16.047 -39.356)" fill="#00df9a" opacity="0.2"/>
    <path id="Path_1920" data-name="Path 1920" d="M276.085,300.393v41.1c0,.358-.017.711-.05,1.063a11.184,11.184,0,0,1-11.14,10.127H98.45a11.184,11.184,0,0,1-11.14-10.127c-.034-.353-.05-.7-.05-1.063v-41.1A11.191,11.191,0,0,1,98.45,289.2H264.895A11.191,11.191,0,0,1,276.085,300.393Z" transform="translate(-38.437 -109.526)" fill="#00df9a" opacity="0.3"/>
    <path id="Path_1922" data-name="Path 1922" d="M266.68,296.528H83.45a11.19,11.19,0,0,1-11.19-11.19V210.67a11.19,11.19,0,0,1,11.19-11.19H266.68a11.19,11.19,0,0,1,11.19,11.19v74.667A11.19,11.19,0,0,1,266.68,296.528Z" transform="translate(-31.829 -70.005)" fill="#00df9a" opacity="0.45"/>
    <path id="Path_1923" data-name="Path 1923" d="M277.87,210.673V285.34c0,.28-.011.554-.034.828a18,18,0,0,1-2.764.213H75.058a18,18,0,0,1-2.764-.213c-.022-.274-.034-.548-.034-.828V210.673a11.187,11.187,0,0,1,11.19-11.19H266.68a11.187,11.187,0,0,1,11.19,11.19Z" transform="translate(-31.829 -70.006)" fill="#00df9a" opacity="0.55"/>
    <path id="Path_1924" data-name="Path 1924" d="M268.465,239.964H68.45a11.19,11.19,0,0,1-11.19-11.19V120.536a11.19,11.19,0,0,1,11.19-11.19H268.465a11.19,11.19,0,0,1,11.19,11.19V228.774A11.19,11.19,0,0,1,268.465,239.964Z" transform="translate(-25.222 -30.302)" fill="#d4ffec"/>
    <path id="Path_1925" data-name="Path 1925" d="M275.362,177.28v28.573a2.817,2.817,0,0,1-2.018,2.685,32.3,32.3,0,0,0-22.23,24.637,2.782,2.782,0,0,1-2.743,2.219H120.321a2.782,2.782,0,0,1-2.743-2.219,32.3,32.3,0,0,0-22.23-24.637,2.816,2.816,0,0,1-2.018-2.685V177.28a2.817,2.817,0,0,1,2.018-2.685,32.3,32.3,0,0,0,22.23-24.637,2.782,2.782,0,0,1,2.743-2.219h128.05a2.782,2.782,0,0,1,2.743,2.219,32.3,32.3,0,0,0,22.23,24.637A2.817,2.817,0,0,1,275.362,177.28Z" transform="translate(-41.111 -47.213)" fill="#93f5d3"/>
    <ellipse id="Ellipse_158" data-name="Ellipse 158" cx="28.255" cy="35.914" rx="28.255" ry="35.914" transform="translate(114.98 108.439)" fill="url(#linear-gradient-2)"/>
    <path id="Path_1926" data-name="Path 1926" d="M169.579,281.582h-12.2a2.8,2.8,0,0,1,0-5.6h12.2a2.8,2.8,0,1,1,0,5.6Z" transform="translate(-68.089 -103.705)" fill="#97ffd2"/>
    <path id="Path_1927" data-name="Path 1927" d="M340.612,171.749h-12.2a2.8,2.8,0,1,1,0-5.6h12.2a2.8,2.8,0,1,1,0,5.6Z" transform="translate(-143.427 -55.325)" fill="#97ffd2"/>
    <g id="Group_641" data-name="Group 641" transform="translate(80.004 141.225)">
      <circle id="Ellipse_159" data-name="Ellipse 159" cx="3.128" cy="3.128" r="3.128" transform="translate(0 0)" fill="#00df9a"/>
      <circle id="Ellipse_160" data-name="Ellipse 160" cx="3.128" cy="3.128" r="3.128" transform="translate(9.461 0)" fill="#00df9a"/>
      <circle id="Ellipse_161" data-name="Ellipse 161" cx="3.128" cy="3.128" r="3.128" transform="translate(18.923 0)" fill="#00df9a"/>
      <circle id="Ellipse_162" data-name="Ellipse 162" cx="3.128" cy="3.128" r="3.128" transform="translate(101.284 0)" fill="#00df9a"/>
      <circle id="Ellipse_163" data-name="Ellipse 163" cx="3.128" cy="3.128" r="3.128" transform="translate(110.746 0)" fill="#00df9a"/>
      <circle id="Ellipse_164" data-name="Ellipse 164" cx="3.128" cy="3.128" r="3.128" transform="translate(120.207 0)" fill="#00df9a"/>
    </g>
    <path id="Path_1928" data-name="Path 1928" d="M408.706,162.629a2.8,2.8,0,0,1-1.978-4.775l9.885-9.885a2.8,2.8,0,0,1,3.956,3.956l-9.885,9.885a2.789,2.789,0,0,1-1.978.819Z" transform="translate(-178.797 -46.954)" fill="#00d890"/>
    <path id="Path_1929" data-name="Path 1929" d="M396.221,148.795a2.8,2.8,0,0,1-1.978-4.775l9.885-9.885a2.8,2.8,0,1,1,3.956,3.956l-9.885,9.885A2.788,2.788,0,0,1,396.221,148.795Z" transform="translate(-173.297 -40.86)" fill="#00d890"/>
    <path id="Path_1930" data-name="Path 1930" d="M93.706,306.639a2.8,2.8,0,0,1-1.978-4.775l9.885-9.885a2.8,2.8,0,1,1,3.956,3.956l-9.885,9.885a2.789,2.789,0,0,1-1.978.819Z" transform="translate(-40.044 -110.388)" fill="#00d890"/>
    <path id="Path_1931" data-name="Path 1931" d="M81.221,292.807a2.8,2.8,0,0,1-1.978-4.775l9.885-9.885a2.8,2.8,0,0,1,3.956,3.956L83.2,291.987A2.791,2.791,0,0,1,81.221,292.807Z" transform="translate(-34.544 -104.295)" fill="#00d890"/>
    <path id="Path_1932" data-name="Path 1932" d="M250.111,208.811h-.867v-5.752h3.643a2.8,2.8,0,1,0,0-5.6h-3.643v-1.427a2.8,2.8,0,1,0-5.6,0v1.427h-.867a8.471,8.471,0,0,0,0,16.943h.867v5.752h-3.643a2.8,2.8,0,0,0,0,5.6h3.643v1.427a2.8,2.8,0,1,0,5.6,0v-1.427h.867a8.472,8.472,0,0,0,0-16.943Zm-7.329,0a2.876,2.876,0,0,1,0-5.752h.867v5.752Zm7.329,11.348h-.867v-5.752h.867a2.876,2.876,0,0,1,0,5.752Z" transform="translate(-103.211 -67.256)" fill="#bef5e4"/>
    <path id="Path_1934" data-name="Path 1934" d="M251.657,147.221a5.583,5.583,0,0,0-5.488-4.481H118.118a5.584,5.584,0,0,0-5.488,4.48,29.369,29.369,0,0,1-20.3,22.5,5.589,5.589,0,0,0-4,5.361v28.573a5.589,5.589,0,0,0,4,5.361,29.368,29.368,0,0,1,20.3,22.5,5.582,5.582,0,0,0,5.488,4.481H246.169a5.583,5.583,0,0,0,5.488-4.48,29.369,29.369,0,0,1,20.3-22.5,5.589,5.589,0,0,0,4-5.361V175.078a5.589,5.589,0,0,0-4-5.361A29.369,29.369,0,0,1,251.657,147.221Zm18.668,56.44a34.95,34.95,0,0,0-24.156,26.734l-128.048.042a34.961,34.961,0,0,0-24.2-26.785l.037-28.582a34.95,34.95,0,0,0,24.156-26.734l128.048-.042a35,35,0,0,0,24.2,26.8Z" transform="translate(-38.908 -45.011)" fill="#00df9a"/>
    <path id="Path_1935" data-name="Path 1935" d="M49.78,377.565H47.961v-1.818a2.8,2.8,0,1,0-5.6,0v1.818H40.548a2.8,2.8,0,1,0,0,5.6h1.818v1.818a2.8,2.8,0,1,0,5.6,0V383.16H49.78a2.8,2.8,0,1,0,0-5.6Z" transform="translate(-39.268 -134.049)" fill="#00df9a"/>
    <path id="Path_1936" data-name="Path 1936" d="M144.739,74.449H142.92V72.631a2.8,2.8,0,1,0-5.6,0v1.818h-1.818a2.8,2.8,0,0,0,0,5.6h1.818v1.818a2.8,2.8,0,0,0,5.6,0V80.044h1.818a2.8,2.8,0,1,0,0-5.6Z" transform="translate(-58.456 -12.897)" fill="#01eca5"/>
    <path id="Path_1937" data-name="Path 1937" d="M456.634,385.576h-1.818v-1.818a2.8,2.8,0,1,0-5.6,0v1.818H447.4a2.8,2.8,0,0,0,0,5.6h1.818v1.818a2.8,2.8,0,1,0,5.6,0v-1.818h1.818a2.8,2.8,0,0,0,0-5.6Z" transform="translate(-195.842 -149.944)" fill="#00df9a"/>
    <path id="Path_1938" data-name="Path 1938" d="M443.179,60.554a8.175,8.175,0,0,1-7.812-10.6,8.166,8.166,0,1,1,7.812,10.6ZM443.166,49.8a2.584,2.584,0,1,0,.768.117A2.564,2.564,0,0,0,443.166,49.8Z" transform="translate(-191.609 -1.608)" fill="url(#linear-gradient-3)"/>
    <path id="Path_1939" data-name="Path 1939" d="M68.986,424.756a8.171,8.171,0,1,1,7.807-5.745A8.144,8.144,0,0,1,68.986,424.756Zm.007-10.747a2.576,2.576,0,1,0,.764.116A2.58,2.58,0,0,0,68.993,414.009Zm5.129,4.171h.006Z" transform="translate(-32.791 -144.037)" fill="url(#linear-gradient-3)"/>
  </g>
</svg>
