<svg xmlns="http://www.w3.org/2000/svg" xmlns:xlink="http://www.w3.org/1999/xlink" width="115.841" height="152.392" viewBox="0 0 115.841 152.392">
  <defs>
    <linearGradient id="linear-gradient" x1="1.578" y1="-0.338" x2="-0.384" y2="1" gradientUnits="objectBoundingBox">
      <stop offset="0" stop-color="#ffb1b1"/>
      <stop offset="1" stop-color="#fe3535"/>
    </linearGradient>
  </defs>
  <g id="bell" transform="translate(-55.644)">
    <path id="Path_2013" data-name="Path 2013" d="M143.937,135.916C121.6,136.967,104,156.41,104,179.269v40.725h84.078V177.955A42.315,42.315,0,0,0,143.937,135.916Z" transform="translate(-32.474 -91.249)" fill="#ffd5d5"/>
    <g id="Group_679" data-name="Group 679" transform="translate(55.644 0)">
      <path id="Path_2014" data-name="Path 2014" d="M68.9,77.51v39.674l-11.035,11.3a7.709,7.709,0,0,0-1.576,8.408,8.336,8.336,0,0,0,7.357,4.992h37.047a13.141,13.141,0,0,0,25.749,0h37.047a7.915,7.915,0,0,0,7.357-4.992,7.62,7.62,0,0,0-1.576-8.408l-11.035-11.3V76.2a44.543,44.543,0,0,0-13.925-32.318,45.775,45.775,0,0,0-28.114-12.349V26.012A13.216,13.216,0,0,0,126.7,13.137a13.137,13.137,0,1,0-26.274,0,13.216,13.216,0,0,0,10.51,12.875v5.518C87.816,33.106,68.9,53.337,68.9,77.51Zm44.667,69.627a7.653,7.653,0,0,1-7.357-5.255h14.451A7.107,7.107,0,0,1,113.565,147.137ZM152.977,76.2v39.412H134.585a2.627,2.627,0,1,0,0,5.255h19.969l11.035,11.3a2.552,2.552,0,0,1,.525,2.89,2.959,2.959,0,0,1-2.627,1.839H63.644a2.857,2.857,0,0,1-2.627-1.839,2.576,2.576,0,0,1,.525-2.89l10.773-11.3h51.761a2.627,2.627,0,0,0,0-5.255H74.153V77.51c0-21.282,16.816-39.674,37.573-40.463h1.839a38.6,38.6,0,0,1,27.063,11.035A37.771,37.771,0,0,1,152.977,76.2ZM105.683,13.137a7.882,7.882,0,1,1,15.765,0,7.653,7.653,0,0,1-5.255,7.357V13.137a2.627,2.627,0,1,0-5.255,0v7.357A8.008,8.008,0,0,1,105.683,13.137Z" transform="translate(-55.644 0)" fill="url(#linear-gradient)"/>
      <path id="Path_2015" data-name="Path 2015" d="M128.8,162.157a2.627,2.627,0,0,0,5.255,0,28.763,28.763,0,0,1,28.639-28.9,2.627,2.627,0,1,0,0-5.255A34.033,34.033,0,0,0,128.8,162.157Z" transform="translate(-104.773 -85.961)" fill="url(#linear-gradient)"/>
      <path id="Path_2016" data-name="Path 2016" d="M192.983,249.486a2.54,2.54,0,0,0,3.678,0l20.757-21.02a2.6,2.6,0,0,0-3.678-3.678l-20.757,21.02A2.8,2.8,0,0,0,192.983,249.486Z" transform="translate(-147.411 -150.431)" fill="url(#linear-gradient)"/>
      <path id="Path_2017" data-name="Path 2017" d="M194.627,239.765a2.385,2.385,0,0,0,1.839-.788l10.51-10.51a2.6,2.6,0,0,0-3.678-3.678l-10.51,10.51a2.54,2.54,0,0,0,0,3.678A2.838,2.838,0,0,0,194.627,239.765Z" transform="translate(-147.217 -150.431)" fill="url(#linear-gradient)"/>
      <path id="Path_2018" data-name="Path 2018" d="M234.5,256.788l-10.51,10.51a2.54,2.54,0,0,0,0,3.678,2.54,2.54,0,0,0,3.678,0l10.51-10.51a2.6,2.6,0,0,0-3.678-3.678Z" transform="translate(-168.17 -171.922)" fill="url(#linear-gradient)"/>
    </g>
  </g>
</svg>
